<svg xmlns="http://www.w3.org/2000/svg" viewBox="0 0 233.55 277.4"><g id="Layer_2" data-name="Layer 2"><g id="Layer_1-2" data-name="Layer 1"><path d="M155.17,205.57c10.2-5.1,20.29-10.13,30.35-15.18,7-3.5,13.9-7.09,20.89-10.56,9.68-4.82,19.82-2.11,24.69,6.54,5,8.82,2.25,18.54-7.15,24.43-20.69,13-41.48,25.79-62.2,38.72-5.71,3.56-11.92,4.84-18.55,4.8-21.81-.16-43.63-.2-65.45-.49a9.9,9.9,0,0,0-8.2,3.55c-5.36,5.92-11,11.55-16.44,17.44-3.21,3.51-5.9,3.36-9.19,0Q23.39,254.06,2.58,233.51c-3.28-3.24-3.54-5.89-.16-9.24q24.32-24.09,48.44-48.37c5.22-5.24,11.49-6.47,18.39-4.94,23.64,5.27,47.28,10.54,70.86,16C149.35,189.16,153.38,194.4,155.17,205.57ZM47.3,264.34c6.1-5.37,12.2-11,18.64-16.26,2.1-1.7,5.1-3.22,7.71-3.24,23.48-.22,47,.12,70.45-.25a30.09,30.09,0,0,0,14-4c13.39-7.75,26.37-16.19,39.51-24.36,7.35-4.56,14.73-9.08,22.06-13.68,3.64-2.28,5.68-5.89,3.86-9.73-1.22-2.57-4.27-4.87-7-5.89-1.85-.69-4.78.73-6.93,1.8-21,10.41-41.79,21.09-62.83,31.33a26.49,26.49,0,0,1-12.35,2.65c-13.94-.67-27.86-2-41.78-3.18-3.37-.28-6.63-1.32-6-5.6s3.82-4.25,7.28-3.91c13.57,1.32,27.14,2.61,40.74,3.67,6.24.49,10.36-2.61,11-7.61s-2.57-8.87-8.7-10.26C114.59,190.78,92.22,186,70,180.59c-6.26-1.52-10.64-.37-15.11,4.25-13.2,13.64-26.77,26.91-40.19,40.35-1.14,1.14-2.18,2.38-3.06,3.33Z"/><path d="M131.5,167.8c-46.12,0-83.83-37.65-83.91-83.66C47.51,39.8,82.41,0,131.54,0c47.29,0,83.67,37.4,84,84.16C215.83,130.07,177.58,167.8,131.5,167.8Zm74.52-84c0-41.41-33.19-74.21-74.57-74.46A74.62,74.62,0,0,0,56.85,84c-.18,41,33.74,74.67,74.74,74.66A74.65,74.65,0,0,0,206,83.83Z"/><path d="M137.91,70.15c-10.68,0-21.08,0-31.47,0-2.77,0-5.08-.79-5.16-3.78-.08-3.25,2.26-4.26,5.24-4,.85.06,1.71,0,2.57,0h28.62c-.16-6.77-6.88-13.75-14.15-14.39-5.38-.47-10.82-.29-16.23-.38-2.85,0-5.94-.35-6-3.9-.08-3.73,2.88-4.28,6-4.27,16.11.06,32.22,0,48.32,0H157c2.8,0,5.19,1.35,4.71,4.13-.27,1.54-2.86,3.64-4.55,3.79-5.49.48-11,.18-16.68.18l7.06,14.82c2.89,0,6.3,0,9.71,0,2.72-.06,4.57,1.13,4.62,3.84s-1.86,4-4.52,4H146.89c-4,15.78-14.42,23.22-31.08,24,1.29,1,2.66,2,3.86,3.08,8.32,7.79,16.58,15.64,24.91,23.41,2,1.9,3.09,4.07,1.14,6.29-2.19,2.5-4.53,1.4-6.64-.61-11.78-11.17-23.64-22.27-35.33-33.53-1.25-1.21-2.7-4.19-2.18-4.84A8.57,8.57,0,0,1,107,85.08c5.1-.43,10.27,0,15.38-.33A17.12,17.12,0,0,0,137.91,70.15Z"/></g></g></svg>